<svg width="103" height="69" xmlns="http://www.w3.org/2000/svg" stroke="null" style="vector-effect: non-scaling-stroke;">

 <g stroke="null">
  <title stroke="null">Layer 1</title>
  <text stroke="#000" transform="matrix(1.48806 0 0 1.5 2.71325 -34.5)" xml:space="preserve" text-anchor="start" font-family="Noto Sans JP" font-size="24" stroke-width="0" id="svg_4" y="55.4" x="41.53961" fill="#000000">ds</text>
  <path stroke="#000" id="svg_6" d="m50.1985,23.74331c-0.17376,-6.51024 -6.16953,-11.74 -13.54232,-11.74332c-4.9289,0.00332 -9.23374,2.34203 -11.59916,5.83517c-1.11171,-0.54238 -2.39158,-0.85919 -3.75553,-0.85919c-4.25813,0.00332 -7.72219,2.9972 -7.87727,6.74412c-4.47113,1.30371 -7.70724,5.01745 -7.71098,9.43115c0,5.49349 5.02045,9.95197 11.21053,9.95197l0,-0.00332l29.66119,0c6.18821,0 11.21053,-4.45848 11.21053,-9.95197c-0.00747,-4.37555 -3.18753,-8.0727 -7.597,-9.40461zm-3.61726,16.04257l-29.65932,0c-4.12734,-0.00995 -7.46808,-2.97398 -7.47555,-6.63464c-0.00374,-3.28912 2.70921,-6.00269 6.25921,-6.52351c0.49513,-0.07132 0.93795,-0.31515 1.22755,-0.68669c0.28961,-0.36822 0.39611,-0.82435 0.30455,-1.2639c-0.05232,-0.24714 -0.08408,-0.47769 -0.08408,-0.70327c0.00747,-2.03186 1.85908,-3.67725 4.1479,-3.68057c1.20887,0 2.27387,0.46111 3.05113,1.21248c0.43534,0.42628 1.09676,0.622 1.73203,0.51418c0.639,-0.10947 1.16963,-0.51087 1.39758,-1.04662c1.39945,-3.30405 4.97374,-5.65935 9.17582,-5.65603c5.41469,0.00663 9.798,3.89951 9.81108,8.70797c0,0.26539 -0.01682,0.53906 -0.04858,0.8227c-0.09342,0.85919 0.56987,1.63212 1.5209,1.7897c3.4734,0.57224 6.11534,3.26093 6.11161,6.50693c-0.00934,3.6673 -3.34447,6.63133 -7.47182,6.64128zm-22.29587,11.81796c-1.46484,-0.00332 -2.64942,-1.05491 -2.64942,-2.34866c0,-1.30205 1.18458,-2.34866 2.64942,-2.35198c1.45737,0.00332 2.64008,1.04993 2.64568,2.35198c-0.00374,1.29376 -1.18645,2.34535 -2.64568,2.34866zm14.01129,0c-1.46297,-0.00332 -2.64942,-1.05491 -2.64942,-2.34866c0,-1.30205 1.18645,-2.34866 2.64942,-2.35198c1.4555,0.00332 2.64195,1.04993 2.64195,2.35198c0.00187,1.29376 -1.18084,2.34535 -2.64195,2.34866zm-21.48498,8.39614c-1.46297,-0.00332 -2.64755,-1.05657 -2.64755,-2.35198s1.18458,-2.34535 2.64755,-2.34866c1.45737,0.00332 2.64382,1.05325 2.64382,2.34866c-0.00187,1.29707 -1.18458,2.35032 -2.64382,2.35198zm14.00942,0c-1.46111,-0.00332 -2.64755,-1.05657 -2.64755,-2.35198s1.18458,-2.34535 2.64755,-2.34866c1.45737,0.00332 2.64008,1.05325 2.64382,2.34866c-0.00187,1.29707 -1.18084,2.35032 -2.64382,2.35198zm14.01129,0c-1.46111,-0.00332 -2.64568,-1.05159 -2.64568,-2.34866c0,-1.30205 1.18458,-2.35198 2.64568,-2.3553c1.45924,0.00332 2.64195,1.05325 2.64942,2.3553c-0.00561,1.29873 -1.18832,2.34701 -2.64942,2.34866z" fill="#fff"/>
 </g>
</svg>