<svg width="103" height="69" xmlns="http://www.w3.org/2000/svg" stroke="null">
 <g stroke="null">
  <title stroke="null">Layer 1</title>
  <path fill="#000" stroke="#fff" d="m21.62178,61.44773c-7.6879,-2.95927 -13.19833,-12.36231 -11.94603,-20.38479c0.78966,-5.05879 17.44955,-35.76916 18.90449,-34.84802c0.47487,0.30065 4.70064,7.46052 9.39059,15.91084c7.51281,13.53652 8.52718,16.06066 8.52718,21.21889c0,10.45551 -8.16843,19.01977 -17.97633,18.84742c-2.86208,-0.0503 -5.96704,-0.38525 -6.89989,-0.74433l0,0l-0.00001,-0.00001zm7.70241,-5.25874c0.25447,-1.35362 -0.33996,-2.01377 -1.81332,-2.01377c-3.35793,0 -8.01593,-4.35668 -9.0566,-8.47073c-1.11011,-4.38858 -4.0535,-4.91051 -4.48826,-0.79587c-0.83762,7.92744 13.94704,18.78655 15.35817,11.28037l0,0l0.00001,0z" id="svg_15"/>
  <text fill="#000000" stroke="#fff" x="51.3" y="50.99461" id="svg_17" stroke-width="0" font-size="50" font-family="Noto Sans JP" text-anchor="start" xml:space="preserve">ds</text>
 </g>

</svg>